<svg width="32" height="32" viewBox="0 0 32 32" fill="none" xmlns="http://www.w3.org/2000/svg">
<path fillRule="evenodd" clipRule="evenodd" d="M15.9662 1.59961C7.15493 1.59961 0 6.32074 0 16.7658C0 27.2109 7.15493 31.932 15.9662 31.932C24.7887 31.932 31.9324 27.2109 31.9324 16.7658C31.9437 6.32074 24.7887 1.59961 15.9662 1.59961ZM24.9917 25.7349C22.8395 27.5828 19.7184 28.7433 15.9776 28.7433C12.2255 28.7433 9.10433 27.5828 6.96348 25.7349C4.64236 23.7293 3.21137 20.7208 3.21137 16.7659C3.21137 12.8109 4.64236 9.8025 6.96348 7.79686C9.1156 5.94898 12.2367 4.78841 15.9776 4.78841C19.7297 4.78841 22.8508 5.94898 24.9917 7.79686C27.3128 9.8025 28.7438 12.8109 28.7438 16.7659C28.7438 20.7208 27.3128 23.7405 24.9917 25.7349ZM19.0084 9.13774C18.1295 8.87858 17.2168 8.78844 16.3041 8.77717C15.2337 8.76591 14.1746 8.85605 13.1492 9.19408C11.4929 9.73492 10.3886 10.7941 10.0506 12.5518C10.0084 12.78 9.98512 13.0081 9.96188 13.2363L9.96188 13.2363L9.96187 13.2364C9.95413 13.3124 9.94638 13.3885 9.93793 13.4645H13.645C13.6562 13.4194 13.6562 13.3856 13.6562 13.3518C13.7689 12.5293 14.152 12.1011 14.952 11.9096C15.3915 11.8082 15.8309 11.7856 16.2703 11.8082C16.6647 11.8307 17.0478 11.8645 17.4084 12.0335C18.0506 12.3265 18.2084 12.9462 17.7689 13.4983C17.5886 13.7124 17.3858 13.9039 17.1605 14.0842C16.845 14.3321 16.5267 14.5744 16.2083 14.8166C15.89 15.0589 15.5717 15.3011 15.2562 15.549C14.6703 16.011 14.1971 16.5518 13.9492 17.2617C13.7802 17.7349 13.7464 18.2307 13.7238 18.7265C13.7163 18.8771 13.7189 19.0328 13.7214 19.1868V19.1868C13.7226 19.2632 13.7238 19.3391 13.7238 19.4138H17.3633V19.1546C17.3182 18.4786 17.5661 17.9265 18.0619 17.487C18.6703 16.9462 19.29 16.4166 19.9098 15.8983C20.4281 15.4589 20.9351 15.0194 21.3407 14.4673C22.3098 13.1265 22.1746 11.4025 21.0027 10.242C20.4506 9.67858 19.752 9.36309 19.0084 9.13774ZM16.5184 20.8447C16.1803 20.732 15.8311 20.7095 15.4818 20.732C14.4001 20.7884 13.555 21.3968 13.4536 22.5799C13.386 23.4024 13.7465 24.1348 14.4339 24.4841C14.817 24.687 15.2339 24.7658 15.662 24.7546H15.8198C16.4057 24.7208 16.9465 24.563 17.3634 24.1236C17.8254 23.6278 17.9268 23.0194 17.8367 22.3771C17.724 21.5884 17.262 21.0926 16.5184 20.8447Z" fill="black"/>
</svg>
