<svg width="60" height="60" viewBox="0 0 60 60" fill="none" xmlns="http://www.w3.org/2000/svg">
<path fill-rule="evenodd" clip-rule="evenodd" d="M7.02765 36.592L29.9502 52.7962L52.7037 36.6976L52.8727 36.5709C57.0558 33.1906 59.5488 28.5216 59.8657 23.43C60.1614 18.6976 58.5347 14.092 55.4079 10.8173C52.4713 7.73284 48.3727 6.02157 43.8727 6.00045C39.415 5.97932 35.0629 7.60608 31.5981 10.585L29.9502 11.9371L28.3023 10.585C24.8586 7.62721 20.5488 6.00045 16.1333 6.00045H16.0065C11.5065 6.0427 7.40793 7.73284 4.47131 10.8173C1.34455 14.092 -0.261087 18.6976 0.0346881 23.43C0.351589 28.5216 2.84455 33.1906 7.02765 36.592ZM29.95 45.465L10.7247 31.8805C7.89369 29.5565 6.22467 26.4298 5.99228 23.0495C5.80214 19.9861 6.81622 17.0284 8.80214 14.9579C12.6261 10.9439 19.619 11.0284 24.3937 15.1692L29.95 19.6903L35.4219 15.2115L35.4852 15.1692C40.2388 11.0495 47.2317 10.9439 51.0768 14.9368C53.0627 17.0284 54.0768 19.965 53.8866 23.0495C53.6754 26.4298 52.0064 29.5565 49.1754 31.8805L29.95 45.465Z" fill="url(#paint0_linear_340_6282)"/>
<defs>
<linearGradient id="paint0_linear_340_6282" x1="29.95" y1="6.00024" x2="29.95" y2="52.7962" gradientUnits="userSpaceOnUse">
<stop stop-color="#FFDA00"/>
<stop offset="1" stop-color="#998300"/>
</linearGradient>
</defs>
</svg>
