<svg width="100" height="85" viewBox="0 0 100 85" fill="none" xmlns="http://www.w3.org/2000/svg">
<path fill-rule="evenodd" clip-rule="evenodd" d="M61.2711 45.2694C63.6919 42.9067 65.0475 39.5951 65.0475 35.6056C65.0475 27.2782 59.1215 21.875 49.9419 21.875C40.7623 21.875 34.8556 27.2588 34.8556 35.5863C34.8556 39.5757 36.2113 42.8873 38.632 45.25C28.4648 48.1162 22.5 55.1268 22.5 64.9067V69.9032H77.4032V64.9067C77.4032 55.1268 71.4384 48.1162 61.2711 45.2694ZM40.3361 35.5864C40.3361 32.5072 41.5756 27.3558 49.9418 27.3558C58.308 27.3558 59.5474 32.5072 59.5474 35.5864C59.5474 38.6656 58.308 43.817 49.9418 43.817C41.5949 43.8364 40.3361 38.6656 40.3361 35.5864ZM34.023 53.2869C30.1498 55.882 28.1357 59.639 28.0001 64.4224H71.9227C71.7871 59.6196 69.773 55.882 65.8998 53.2869C62.0459 50.6918 56.5266 49.3168 49.9614 49.3168C43.3963 49.3168 37.8769 50.6918 34.023 53.2869Z" fill="#193E4F"/>
</svg>
